<svg xmlns="http://www.w3.org/2000/svg" viewBox="0 0 1200 500" fill="none"><defs><linearGradient id="sky" x1="162" x2="1005" y1="24" y2="480" gradientUnits="userSpaceOnUse"><stop stop-color="#132138"/><stop offset=".5" stop-color="#224a5d"/><stop offset="1" stop-color="#132a20"/></linearGradient><linearGradient id="lake" x1="611" x2="611" y1="277" y2="500" gradientUnits="userSpaceOnUse"><stop stop-color="#77c5d2" stop-opacity=".58"/><stop offset="1" stop-color="#0d1c21" stop-opacity=".1"/></linearGradient><linearGradient id="window" x1="0" x2="0" y1="290" y2="407"><stop stop-color="#ffd38a"/><stop offset="1" stop-color="#ffb25d" stop-opacity=".38"/></linearGradient></defs><rect width="1200" height="500" rx="32" fill="url(#sky)"/><path fill="#dce7ef" d="m300 267 117-108 72 54 75-92 87 77 81-85 92 83 61-52 167 123H300Z" opacity=".9"/><path fill="#a8bfd2" d="m420 269 71-63 71-80 76 63 97-95 88 80 70-50 159 145H420Z" opacity=".72"/><path fill="#143025" d="M0 314c120 21 222 19 343-7 82-17 151-37 235-24 90 14 179 53 294 53 136 0 214-40 328-26v190H0V314Z"/><path fill="url(#lake)" d="M0 354c138 26 253 18 382-11 85-20 161-42 253-37 106 6 192 49 318 48 85 0 151-17 247-30v176H0V354Z" opacity=".95"/><path fill="#5f3d24" d="M548 407V285l89-63 87 63v122H548Z"/><path fill="#7c532f" d="M578 407v-83l59-40 58 40v83h-117Z"/><path fill="#2c2018" d="m548 286 89-64 87 64h-24l-63-45-64 45h-25Z"/><path fill="#f6c270" d="M603 318h23v27h-23zM648 318h23v27h-23zM621 353h31v54h-31z"/><path fill="url(#window)" d="M591 309h91c17 0 33 11 42 23v95H548v-95c8-12 24-23 43-23Z" opacity=".36"/><path fill="#b48354" d="M515 409h250v9H515z"/><path fill="#d9dfe6" d="M496 399h16l28 20h-25zM724 399h16l29 20h-25z"/><path stroke="#dbe7ef" stroke-linecap="round" stroke-width="4" d="M646 214c10 13 16 26 17 37"/><path stroke="#dbe7ef" stroke-linecap="round" stroke-width="4" d="M656 199c14 17 22 34 25 49"/><g fill="#11261c"><path d="m228 412 22-50 22 50h-16v31h-11v-31h-17Z"/><path d="m283 425 15-34 15 34h-11v18h-8v-18h-11Z"/><path d="m857 414 20-45 21 45h-15v28h-11v-28h-15Z"/><path d="m907 426 14-31 14 31h-11v17h-6v-17h-11Z"/></g><path fill="#a7d0dc" d="M484 450c70 20 164 30 304 29 151-1 266-17 412-44v13c-131 34-265 52-412 52-130 0-231-12-304-35v-15Z" opacity=".85"/></svg>