<svg xmlns="http://www.w3.org/2000/svg" viewBox="0 0 1200 630" fill="none"><defs><linearGradient id="bg" x1="140" x2="1044" y1="46" y2="590" gradientUnits="userSpaceOnUse"><stop stop-color="#132138"/><stop offset=".56" stop-color="#264d61"/><stop offset="1" stop-color="#173125"/></linearGradient></defs><rect width="1200" height="630" rx="36" fill="url(#bg)"/><path fill="#dce8ef" d="m751 426 77-81 56 44 76-87 79 75 52-37 109 87H751Z" opacity=".9"/><path fill="#143025" d="M651 438c129 10 219-23 336-21 91 1 156 30 213 39v174H651V438Z"/><path fill="#5f3d24" d="M780 502V392l80-58 81 58v110H780Z"/><path fill="#f7c16f" d="M816 420h22v24h-22zM881 420h22v24h-22zM844 455h33v47h-33z"/><path fill="#a5d0d9" d="M718 522c88 15 178 20 271 17 77-2 146-12 211-30v19c-73 17-143 27-211 29-108 4-198-3-271-19v-16Z" opacity=".88"/><text x="84" y="176" fill="#F8D48F" font-family="Inter,Segoe UI,Arial,sans-serif" font-size="28" font-weight="700" letter-spacing="6">KENAI PENINSULA RENTALS</text><text x="84" y="276" fill="#fff" font-family="Inter,Segoe UI,Arial,sans-serif" font-size="68" font-weight="800">Kenai Peninsula Rentals</text><text x="84" y="342" fill="#DBE8EF" font-family="Inter,Segoe UI,Arial,sans-serif" font-size="36" font-weight="600">Cabins, lodges, and local stays with Alaska warmth built into every listing.</text><text x="84" y="398" fill="#B8F3D2" font-family="Inter,Segoe UI,Arial,sans-serif" font-size="28" font-weight="700">Kenai Peninsula, Alaska</text></svg>