<svg xmlns="http://www.w3.org/2000/svg" width="1200" height="630" viewBox="0 0 1200 630" role="img" aria-labelledby="title desc">
  <title id="title">Kenai Peninsula Rentals Open Graph image</title>
  <desc id="desc">Branded social card for Kenai Peninsula Rentals with Alaska-inspired mountains and aurora styling.</desc>
  <defs>
    <linearGradient id="bg" x1="0" y1="0" x2="1" y2="1">
      <stop offset="0%" stop-color="#0b1110" />
      <stop offset="100%" stop-color="#2a1800" />
    </linearGradient>
    <linearGradient id="glow" x1="0" y1="0" x2="1" y2="0">
      <stop offset="0%" stop-color="#f59e0b" stop-opacity="0.95" />
      <stop offset="100%" stop-color="#ffffff" stop-opacity="0.15" />
    </linearGradient>
  </defs>
  <rect width="1200" height="630" rx="32" fill="url(#bg)" />
  <circle cx="1020" cy="120" r="180" fill="#f59e0b" opacity="0.14" />
  <path d="M0 418 C180 338 308 502 470 430 S815 342 1200 452 L1200 630 L0 630 Z" fill="#081018" opacity="0.55" />
  <path d="M0 470 C175 390 352 560 538 468 S865 408 1200 520 L1200 630 L0 630 Z" fill="#ffffff" opacity="0.1" />
  <path d="M90 122 C250 72 448 62 658 104 S1032 146 1120 96" fill="none" stroke="url(#glow)" stroke-width="18" stroke-linecap="round" opacity="0.78" />
  <rect x="78" y="78" width="280" height="42" rx="21" fill="rgba(255,255,255,0.14)" />
  <text x="218" y="105" text-anchor="middle" font-family="Inter, Arial, sans-serif" font-size="18" fill="#ffffff" letter-spacing="3">KENAI PENINSULA, ALASKA</text>
  <text x="78" y="280" font-family="Inter, Arial, sans-serif" font-size="62" font-weight="700" fill="#ffffff">Kenai Peninsula Rentals</text>
  <text x="78" y="352" font-family="Inter, Arial, sans-serif" font-size="28" fill="#d8e4ec">Local-first cabins, lodges, and longer stays across Alaska’s Kenai Peninsula.</text>
  <text x="78" y="560" font-family="Inter, Arial, sans-serif" font-size="24" fill="#ffffff">kenaipeninsularentals.com</text>
</svg>
